<?xml version="1.0" encoding="UTF-8"?>
<svg version="1.1" xmlns="http://www.w3.org/2000/svg" width="63" height="63">
<path d="M0 0 C8.54322525 4.34927831 15.06197237 9.93830616 18.7421875 18.96875 C20.8881442 27.55257682 20.62153933 37.55595505 16.75390625 45.57421875 C11.51266681 54.23703883 4.97386851 58.5712105 -4.5625 61.75 C-15.36327599 62.54860283 -24.46894549 61.89224171 -33.3125 55.125 C-39.60802263 49.29194467 -43.60911895 41.59193517 -43.95703125 33.05029297 C-44.15031131 22.98435553 -42.5294529 15.35914479 -35.62890625 7.56640625 C-26.3569336 -1.12719773 -12.14328819 -4.34701367 0 0 Z " fill="#7E5E8B" transform="translate(43.5625,1.25)"/>
<path d="M0 0 C4.24181053 2.50744915 4.24181053 2.50744915 6 5 C6.72026549 8.30526738 6.57058747 11.44989996 6.375 14.8125 C6.34792969 15.69615234 6.32085938 16.57980469 6.29296875 17.49023438 C6.22255869 19.66121114 6.11494606 21.83092529 6 24 C6.66 24 7.32 24 8 24 C7.34 25.32 6.68 26.64 6 28 C2.05272412 28.17942163 -0.5980513 28.09350689 -4 26 C-4.66 26.66 -5.32 27.32 -6 28 C-9.4375 28.375 -9.4375 28.375 -13 28 C-15.58859984 25.82891626 -15.93540857 24.37947467 -16.5 21.0625 C-15.8093199 16.8320844 -14.4073494 15.55551205 -11 13 C-8.32307794 12.04501671 -5.81122882 11.52412741 -3 11 C-3 8.69 -3 6.38 -3 4 C-4.32 4.33 -5.64 4.66 -7 5 C-7.33 6.98 -7.66 8.96 -8 11 C-9.99954746 11.04254356 -12.00041636 11.04080783 -14 11 C-15 10 -15 10 -15.4375 7.75 C-14.90496699 4.40264964 -13.60896378 2.96678154 -10.91015625 0.95703125 C-7.37864913 -0.81233326 -3.782113 -1.07159868 0 0 Z " fill="#C2A8E3" transform="translate(23,22)"/>
<path d="M0 0 C3 1.1875 3 1.1875 5 3 C5.4375 5.5625 5.4375 5.5625 5 8 C4.34 8.66 3.68 9.32 3 10 C0.375 9.625 0.375 9.625 -2 9 C-2 7.02 -2 5.04 -2 3 C-2.99 3 -3.98 3 -5 3 C-5 5.97 -5 8.94 -5 12 C-3.35 12 -1.7 12 0 12 C0 12.99 0 13.98 0 15 C-1.65 15 -3.3 15 -5 15 C-5 21.6 -5 28.2 -5 35 C-4.01 35 -3.02 35 -2 35 C-2 35.99 -2 36.98 -2 38 C-6.29 38 -10.58 38 -15 38 C-14.67 36.68 -14.34 35.36 -14 34 C-13.85870882 32.48729395 -13.75537183 30.97071872 -13.68359375 29.453125 C-13.62075195 28.18662109 -13.62075195 28.18662109 -13.55664062 26.89453125 C-13.51732422 26.02183594 -13.47800781 25.14914063 -13.4375 24.25 C-13.39431641 23.36183594 -13.35113281 22.47367188 -13.30664062 21.55859375 C-13.20086385 19.37254037 -13.09877454 17.18637911 -13 15 C-13.99 15 -14.98 15 -16 15 C-16 14.01 -16 13.02 -16 12 C-15.01 12 -14.02 12 -13 12 C-13.103125 10.948125 -13.20625 9.89625 -13.3125 8.8125 C-13 5 -13 5 -11 2.0625 C-7.1471263 -0.58635067 -4.53711018 -0.83241336 0 0 Z " fill="#C4AAE5" transform="translate(48,12)"/>
<path d="M0 0 C-0.33 0.556875 -0.66 1.11375 -1 1.6875 C-2.16064945 4.37150184 -2.38086916 6.10539438 -2 9 C-1.01 9.66 -0.02 10.32 1 11 C0.34 12.32 -0.32 13.64 -1 15 C-7.42210386 15.48468708 -7.42210386 15.48468708 -9.9375 13.375 C-11.33830596 10.24378669 -11.55506621 8.39978055 -11 5 C-7.70148959 0.53730944 -5.51785135 -0.64161062 0 0 Z " fill="#C5ABE6" transform="translate(18,35)"/>
<path d="M0 0 C0 1.65 0 3.3 0 5 C-2.31 5.33 -4.62 5.66 -7 6 C-7 4.02 -7 2.04 -7 0 C-4.3333581 -1.33332095 -2.83319697 -0.67102033 0 0 Z " fill="#C2A7E2" transform="translate(55,44)"/>
<path d="M0 0 C1.32 0 2.64 0 4 0 C4 2.31 4 4.62 4 7 C-0.12168689 8.62950412 -2.70700357 9.26264601 -7 8 C-7 7.67 -7 7.34 -7 7 C-5.02 7 -3.04 7 -1 7 C-1.020625 6.030625 -1.04125 5.06125 -1.0625 4.0625 C-1 1 -1 1 0 0 Z " fill="#8B6C9C" transform="translate(16,26)"/>
<path d="M0 0 C0.99 0 1.98 0 3 0 C3.0825 0.94875 3.165 1.8975 3.25 2.875 C3.65074923 6.10461791 3.65074923 6.10461791 6.0625 7.375 C6.701875 7.58125 7.34125 7.7875 8 8 C7.34 8 6.68 8 6 8 C5.67 9.32 5.34 10.64 5 12 C5 11.01 5 10.02 5 9 C3.35 9 1.7 9 0 9 C0 6.03 0 3.06 0 0 Z " fill="#8D6E9F" transform="translate(43,15)"/>
<path d="M0 0 C0 2.97 0 5.94 0 9 C-1.65 8.67 -3.3 8.34 -5 8 C-5.36625971 3.48279689 -5.36625971 3.48279689 -3.625 1.1875 C-2 0 -2 0 0 0 Z " fill="#866796" transform="translate(20,36)"/>
</svg>
