<svg version="1.1" id="Layer_1" xmlns="http://www.w3.org/2000/svg" xmlns:xlink="http://www.w3.org/1999/xlink" x="0px" y="0px" width="100%" viewBox="0 0 3007 1212" enable-background="new 0 0 3007 1212" xml:space="preserve">

<path fill="#DCC9F6" opacity="1.000000" stroke="none" d="
M303.000000,643.000122 
	C409.136505,643.000122 514.773010,643.000122 620.704468,643.000122 
	C620.704468,678.632751 620.704468,714.032959 620.704468,749.849304 
	C469.680969,749.849304 318.619873,749.849304 167.279633,749.849304 
	C167.279633,769.663269 167.279633,789.064575 167.279633,808.722656 
	C167.869064,808.811218 168.483856,808.980469 169.099869,808.985046 
	C215.348312,809.331665 261.596710,809.901489 307.845367,809.927124 
	C346.595520,809.948547 385.346375,809.369934 424.096222,808.987549 
	C451.347137,808.718628 478.597260,808.362793 505.847015,807.990662 
	C526.765442,807.705078 547.684509,807.416870 568.599182,806.948975 
	C574.835205,806.809509 581.057434,806.059082 587.661987,805.560181 
	C587.661987,843.542297 587.661987,880.943542 587.661987,918.118225 
	C578.315308,918.118225 568.804565,918.123413 559.293762,918.112976 
	C557.800354,918.111389 556.307007,918.005432 554.813660,918.005005 
	C539.648132,918.000793 524.481384,918.132324 509.317352,917.983765 
	C486.566254,917.760742 463.817719,917.280457 441.066833,917.023682 
	C406.651703,916.635315 372.235992,916.275940 337.819641,916.028870 
	C282.570251,915.632324 227.320129,915.337524 172.070312,915.001160 
	C170.587906,914.992126 169.105408,915.000000 167.200867,915.000000 
	C167.200867,962.263977 167.200867,1009.331665 167.200867,1056.698975 
	C121.709305,1056.698975 76.639275,1056.698975 31.331806,1056.698975 
	C31.731794,1046.460083 32.124271,1036.173950 32.550751,1025.889160 
	C32.590847,1024.921997 32.961246,1023.966370 32.982708,1023.001038 
	C33.340256,1006.915588 33.717781,990.830200 33.987537,974.743164 
	C34.366230,952.159485 34.725643,929.575134 34.974392,906.989746 
	C35.368130,871.240540 35.827747,835.490601 35.932217,799.740051 
	C35.986031,781.323303 35.374866,762.903748 34.985439,744.487061 
	C34.729862,732.400024 34.348221,720.315552 33.995808,708.230713 
	C33.682274,697.479187 33.443291,686.723755 32.965427,675.979248 
	C32.483932,665.153259 31.748697,654.338623 31.094713,643.000122 
	C121.614822,643.000122 212.057404,643.000122 303.000000,643.000122 
z" data-index="1" style="visibility: visible;"></path>
<path fill="#DCC9F6" opacity="1.000000" stroke="none" d="
M158.021667,128.063385 
	C167.081161,104.487427 176.119171,81.312912 185.167053,58.113075 
	C255.349976,58.113075 325.319916,58.113075 395.901459,58.113075 
	C449.353241,195.709259 502.877899,333.493073 556.595703,471.773987 
	C554.404480,471.871521 552.960876,471.991577 551.517212,471.991882 
	C505.194275,472.001740 458.871277,471.963654 412.548615,472.073944 
	C409.112183,472.082123 407.428864,471.271667 406.216858,467.781372 
	C397.637543,443.075470 388.825867,418.449615 379.896729,393.867767 
	C379.431549,392.587128 377.247040,391.179443 375.815674,391.127228 
	C368.327332,390.854034 360.823730,390.999542 353.325409,390.999542 
	C303.170013,390.999542 253.014496,391.048096 202.859528,390.900452 
	C199.148026,390.889526 197.347931,391.844421 196.143707,395.404480 
	C187.864029,419.881622 179.435272,444.308868 170.882233,468.691742 
	C170.399689,470.067413 168.398758,471.858276 167.099243,471.862579 
	C120.443756,472.016998 73.787621,471.982086 27.131584,471.958740 
	C26.824203,471.958588 26.516926,471.753265 25.719997,471.469360 
	C28.248480,464.738800 30.724543,457.991211 33.312744,451.286926 
	C41.927036,428.973053 50.630314,406.693420 59.206615,384.364990 
	C67.205574,363.539703 75.020874,342.643860 83.038109,321.825684 
	C90.068390,303.570312 97.294655,285.390503 104.383575,267.157562 
	C113.045670,244.878342 121.700928,222.596268 130.272644,200.282211 
	C137.576431,181.268845 144.733185,162.199036 152.009964,143.175247 
	C153.901047,138.231354 155.997849,133.366165 158.021667,128.063385 
M339.997559,284.457611 
	C323.029510,238.642441 306.061493,192.827255 288.687531,145.916107 
	C269.089203,198.318665 249.970901,249.437714 230.782043,300.745422 
	C269.618988,300.745422 307.700806,300.745422 346.151917,300.745422 
	C344.018555,295.358948 342.020050,290.313049 339.997559,284.457611 
z" data-index="2" style="opacity: 1;"></path>
<path fill="#DCC9F6" opacity="1.000000" stroke="none" d="
M1331.815918,158.000717 
	C1342.915405,160.534119 1353.809082,162.331024 1364.168457,165.747604 
	C1388.230591,173.683411 1410.578491,184.818283 1429.233521,202.603775 
	C1441.531006,214.328018 1451.644287,227.406479 1459.377930,242.588974 
	C1467.100586,257.750061 1471.827148,273.599792 1472.940063,290.493652 
	C1473.602783,300.555695 1473.770630,310.655548 1473.934448,320.742065 
	C1473.981567,323.641296 1473.240356,326.553284 1472.810669,329.841156 
	C1352.096802,329.841156 1231.333008,329.841156 1109.731201,329.841156 
	C1110.397827,332.914093 1110.732422,335.553619 1111.547485,338.035339 
	C1116.921143,354.397308 1125.755981,368.296509 1141.355469,376.581635 
	C1148.112427,380.170319 1155.310303,382.892914 1163.378296,383.102966 
	C1185.669067,383.683258 1207.941040,384.985352 1230.232056,385.544403 
	C1242.268677,385.846313 1254.335571,385.390167 1266.376709,384.948761 
	C1278.223267,384.514496 1290.067261,383.832520 1301.889404,382.951019 
	C1312.534180,382.157349 1323.487305,381.773132 1333.130127,376.815063 
	C1344.772461,370.829010 1356.531982,364.679596 1364.243774,353.293793 
	C1366.255615,350.323273 1368.747192,349.161469 1372.593384,351.100586 
	C1396.865234,363.337463 1422.179199,373.077454 1447.817261,382.017883 
	C1454.176514,384.235443 1460.354736,387.080139 1466.840088,388.784607 
	C1470.472534,389.739288 1470.054810,391.044250 1468.908813,393.438843 
	C1460.871704,410.233856 1449.071289,423.891785 1434.840332,435.807190 
	C1418.270874,449.680328 1399.320679,458.932709 1379.012207,465.418945 
	C1363.802612,470.276672 1348.101196,473.074890 1332.205444,475.320892 
	C1318.625122,477.239685 1305.170532,476.791046 1291.658691,476.942993 
	C1248.408691,477.429138 1205.152588,478.092987 1161.906128,477.756592 
	C1147.806641,477.646973 1133.728271,474.688934 1119.642334,473.015991 
	C1101.226440,470.828796 1083.909546,464.974182 1067.277100,457.006744 
	C1053.613037,450.461304 1041.213501,441.982910 1030.633057,431.100006 
	C1012.481323,412.429382 1000.019653,390.261230 993.360535,365.255707 
	C990.166809,353.263123 989.536499,340.563416 988.069763,328.145599 
	C987.336792,321.939484 986.784607,315.619965 987.094482,309.398712 
	C988.428101,282.623688 993.440918,256.696259 1007.009644,233.130768 
	C1020.072937,210.443085 1037.256958,191.699982 1060.547607,179.097961 
	C1078.222168,169.534683 1096.928833,162.925629 1116.847412,160.000824 
	C1126.990112,158.511475 1137.160522,156.343658 1147.347046,156.170593 
	C1190.593384,155.435898 1233.850098,155.235580 1277.103882,155.059280 
	C1290.187988,155.005951 1303.281250,155.511398 1316.357544,156.063034 
	C1321.379150,156.274872 1326.364990,157.329468 1331.815918,158.000717 
M1325.299927,249.037735 
	C1320.939697,248.021652 1316.628418,246.529816 1312.210449,246.075928 
	C1297.072632,244.520737 1281.899658,242.255249 1266.735840,242.222763 
	C1234.912354,242.154541 1203.087158,243.385101 1171.260620,243.974594 
	C1158.522827,244.210541 1146.785767,247.337006 1136.030762,254.390503 
	C1125.988647,260.976318 1118.794800,269.650391 1114.404541,280.703003 
	C1194.084839,280.703003 1273.439697,280.703003 1353.354126,280.703003 
	C1347.745117,266.709503 1338.699341,256.481232 1325.299927,249.037735 
z" data-index="3" style="visibility: visible; opacity: 1;"></path>
<path fill="#DCC9F6" opacity="1.000000" stroke="none" d="
M820.000122,410.567413 
	C820.000061,409.304962 820.000061,408.475800 820.000061,407.441406 
	C815.602722,414.651398 811.563782,421.834686 806.994507,428.663055 
	C791.891907,451.232910 770.488464,464.782440 744.628418,472.056000 
	C728.090637,476.707550 711.276733,478.553711 694.191589,477.960297 
	C670.669495,477.143280 649.364014,469.949219 630.281372,455.884277 
	C605.984558,437.976166 590.001282,414.303375 579.925842,386.163055 
	C574.557373,371.169373 570.782410,355.887604 570.039185,339.965668 
	C569.491089,328.222961 568.359619,316.391418 569.207520,304.724426 
	C570.840027,282.261688 575.788757,260.412811 585.021606,239.690292 
	C592.502502,222.899948 601.828247,207.417480 614.468628,193.845581 
	C624.295837,183.294083 635.120728,174.004196 647.680298,167.286438 
	C658.833008,161.321167 670.835022,156.654861 683.815979,156.034653 
	C694.558167,155.521408 705.384888,154.396683 716.053284,155.183090 
	C743.303223,157.191772 768.634033,165.429810 790.116760,182.820480 
	C802.428833,192.787384 812.045593,205.289566 818.965515,219.690109 
	C820.057373,221.962265 821.150574,224.233780 823.437866,226.376373 
	C822.960632,215.446594 822.466492,204.517517 822.019653,193.586502 
	C821.924500,191.257278 822.031433,188.920517 821.994629,186.588043 
	C821.669556,166.004807 821.385925,145.420715 820.977905,124.839111 
	C820.771301,114.419685 820.273499,104.006355 820.014282,93.587601 
	C819.626587,78.005379 819.427673,62.417938 818.952515,46.838692 
	C818.767456,40.772053 818.050354,34.721645 817.547913,28.311684 
	C861.247192,28.311684 904.314758,28.311684 948.365234,28.311684 
	C947.944946,36.738026 947.516357,45.243252 947.101074,53.749123 
	C947.036316,55.076073 947.017517,56.405811 947.001953,57.734550 
	C946.671631,85.982140 946.213867,114.228981 946.043213,142.477554 
	C945.624695,211.726379 945.252136,280.975769 945.058044,350.225464 
	C945.006409,368.639801 945.630737,387.056885 946.011963,405.471313 
	C946.282776,418.554962 946.573364,431.639557 947.032104,444.717529 
	C947.343994,453.610199 947.962158,462.492188 948.460999,471.704681 
	C904.697632,471.704681 861.627441,471.704681 818.388306,471.704681 
	C818.924988,451.491730 819.462585,431.246216 820.000122,410.567413 
M700.002808,307.880707 
	C699.184082,326.548065 700.743713,344.641144 713.049255,359.999390 
	C720.307129,369.057892 728.917664,376.272858 740.560181,378.994049 
	C754.164246,382.173798 767.611145,382.168823 781.176819,378.112091 
	C798.670227,372.880859 811.110657,362.431793 816.954102,345.005280 
	C821.434082,331.644562 822.102905,317.884857 820.058289,303.896942 
	C817.546204,286.710907 809.341248,273.687134 793.519165,265.957947 
	C777.527222,258.145752 760.661011,255.614655 743.445007,260.167633 
	C726.729736,264.588196 713.111816,273.899231 705.568848,290.133575 
	C703.098206,295.451080 701.845764,301.334625 700.002808,307.880707 
z" data-index="4" style="visibility: visible; opacity: 1;"></path>
<path fill="#DCC9F6" opacity="1.000000" stroke="none" d="
M2167.000000,839.037720 
	C2167.004883,858.026855 2167.109131,876.522461 2166.995361,895.016724 
	C2166.717285,940.258667 2166.169678,985.499634 2166.068359,1030.741699 
	C2166.014893,1054.655029 2166.622559,1078.570679 2167.016602,1102.483887 
	C2167.262207,1117.400513 2167.557129,1132.317993 2168.032715,1147.228516 
	C2168.458252,1160.575439 2169.190674,1173.912231 2169.674805,1187.257690 
	C2169.705811,1188.111816 2168.960449,1189.322510 2168.215332,1189.783813 
	C2167.477295,1190.240723 2166.281982,1189.994873 2165.287109,1189.994995 
	C2124.464844,1190.000977 2083.642578,1190.000000 2042.820190,1189.999878 
	C2042.028198,1189.999878 2041.236206,1189.999878 2040.981079,1189.999878 
	C2040.981079,1173.924072 2040.981079,1158.230591 2040.982056,1142.537231 
	C2040.982056,1141.870850 2040.989868,1141.204346 2041.001099,1140.538086 
	C2041.333252,1120.791260 2041.626831,1101.043701 2042.012939,1081.297852 
	C2042.268799,1068.212891 2042.817505,1055.131836 2042.945801,1042.046265 
	C2043.110596,1025.228271 2042.985596,1008.407532 2042.985596,992.693604 
	C2036.712158,1007.710449 2027.057861,1022.098816 2013.773804,1033.540649 
	C1998.388184,1046.792725 1980.324097,1054.854492 1960.366089,1059.149658 
	C1944.127808,1062.644531 1927.780762,1063.783203 1911.363281,1062.850586 
	C1894.896851,1061.915039 1879.494751,1056.598511 1865.049194,1048.588135 
	C1852.362671,1041.553223 1842.109863,1031.554565 1832.602295,1020.925964 
	C1819.994873,1006.832275 1810.487427,990.526123 1804.228271,972.768433 
	C1799.172852,958.425720 1794.924683,943.601807 1792.346313,928.641907 
	C1790.094727,915.577454 1789.633667,901.980408 1790.210938,888.698120 
	C1791.504028,858.941772 1798.828125,830.643005 1813.791138,804.565796 
	C1825.617188,783.955200 1841.401733,767.232544 1861.828003,755.043518 
	C1879.489624,744.504272 1898.625732,739.779236 1919.255859,739.865845 
	C1936.531982,739.938416 1953.458496,741.573242 1969.884888,746.993835 
	C1986.599121,752.509338 2001.659058,760.715393 2014.682373,772.934265 
	C2027.068359,784.555237 2035.346069,798.651245 2042.975342,814.954529 
	C2048.567871,790.983521 2053.903320,768.113953 2059.296143,744.999695 
	C2066.560303,744.999695 2073.707275,744.999695 2080.854248,744.999695 
	C2108.680176,744.999695 2136.505859,745.022339 2164.331787,744.971985 
	C2167.942871,744.965454 2171.342773,744.769531 2169.017578,750.067627 
	C2168.894775,750.347290 2169.005615,750.727295 2168.999512,751.060486 
	C2168.666748,769.308350 2168.379883,787.557312 2167.982422,805.803772 
	C2167.744629,816.718994 2167.333252,827.630432 2167.000000,839.037720 
M1926.566284,926.978088 
	C1929.463257,931.571106 1931.667847,936.841980 1935.381836,940.635071 
	C1948.701782,954.239258 1964.663574,960.864929 1984.248535,959.223083 
	C1996.881714,958.164062 2008.272217,954.985291 2018.645264,947.776184 
	C2035.395508,936.134949 2042.798706,919.652588 2042.834351,899.812256 
	C2042.848267,892.091370 2041.466919,884.269531 2039.888672,876.666504 
	C2037.324829,864.316162 2031.255615,853.937988 2020.426880,846.864807 
	C2005.443115,837.077881 1988.972168,835.137817 1971.489136,836.875427 
	C1953.342163,838.679138 1940.214233,847.983704 1930.882202,862.839722 
	C1925.465454,871.462891 1922.891235,881.183655 1921.733032,891.582092 
	C1920.378418,903.744629 1921.522949,915.158020 1926.566284,926.978088 
z" data-index="5" style="visibility: visible; opacity: 1;"></path>
<path fill="#DCC9F6" opacity="1.000000" stroke="none" d="
M882.015259,1010.980591 
	C873.156555,1022.975220 862.892334,1033.124390 850.513428,1040.921509 
	C837.754578,1048.958008 823.811584,1053.960449 809.036865,1057.100098 
	C792.208435,1060.676147 775.194092,1060.670288 758.279236,1059.794556 
	C737.692139,1058.728882 717.478210,1054.775269 699.161255,1044.576172 
	C679.712402,1033.746826 667.876953,1017.280029 662.811096,995.446106 
	C660.241699,984.372070 659.565186,973.323853 660.110718,962.191467 
	C660.878662,946.517761 665.769226,932.142395 675.750366,919.730103 
	C689.799133,902.259277 709.388306,894.192932 729.989441,888.094788 
	C739.323730,885.331665 748.968628,883.617737 760.007629,881.074219 
	C730.815796,863.070740 702.431091,845.565002 673.098450,827.474670 
	C684.501831,815.697021 695.046204,803.292236 707.142639,792.651978 
	C727.607971,774.650269 750.764099,760.615906 776.710876,751.752869 
	C791.730713,746.622314 807.254089,743.829712 823.050720,741.772583 
	C843.079407,739.164368 863.165833,739.168091 883.070557,740.335876 
	C911.377319,741.996643 939.190063,747.210938 964.717041,760.914307 
	C981.232422,769.780090 995.208496,781.451843 1005.956543,796.797058 
	C1017.676392,813.529602 1024.799683,832.206482 1027.927124,852.329712 
	C1029.376465,861.656372 1030.666992,871.096375 1030.876587,880.510681 
	C1031.542603,910.417053 1031.456177,940.340149 1032.133789,970.246094 
	C1032.326294,978.738525 1032.944824,987.800293 1040.443359,993.728882 
	C1043.884521,996.449524 1048.411865,997.755249 1052.211670,1000.085876 
	C1053.499146,1000.875488 1054.680786,1002.786377 1054.817627,1004.284607 
	C1055.032349,1006.636475 1054.112305,1009.066345 1054.034424,1011.474915 
	C1053.627319,1024.056274 1053.309448,1036.640747 1053.015259,1049.225464 
	C1052.912964,1053.600952 1051.372559,1055.758545 1046.425171,1056.149902 
	C1035.880371,1056.984131 1025.432617,1059.089478 1014.885742,1059.841431 
	C1005.766846,1060.491333 996.565857,1059.964478 987.401306,1060.005859 
	C972.166138,1060.074707 957.236633,1059.148438 942.420227,1054.376709 
	C925.398071,1048.894775 916.071045,1036.916992 910.030090,1021.340942 
	C903.969910,1005.715271 902.521667,989.343689 902.994324,974.191284 
	C896.416077,985.628845 889.231140,998.121277 882.015259,1010.980591 
M787.446838,960.988525 
	C792.060486,962.659119 796.659119,965.683899 801.290710,965.735168 
	C813.102783,965.865845 825.075195,965.608154 836.718811,963.801086 
	C858.338928,960.445679 877.998169,952.460571 893.558716,936.082092 
	C900.881714,928.374146 905.232300,920.117065 902.459656,909.244263 
	C896.646301,911.453064 890.832275,914.334778 884.681702,915.857971 
	C872.159546,918.959167 859.487000,921.487976 846.816101,923.941406 
	C838.388306,925.573364 829.860291,926.693787 821.369385,927.992920 
	C809.884949,929.750305 798.650208,931.918213 788.663147,938.637512 
	C780.108765,944.393066 779.921936,955.550537 787.446838,960.988525 
M844.766113,843.003052 
	C842.110046,843.669189 839.456787,844.346436 836.797546,844.999695 
	C815.345703,850.269714 797.379639,861.347961 781.564575,877.995544 
	C785.070129,877.995544 787.671448,878.150574 790.249207,877.969543 
	C803.675720,877.026794 817.081909,875.671936 830.522522,875.084839 
	C846.417664,874.390503 862.361877,874.704224 878.239868,873.795471 
	C883.672791,873.484558 889.088379,871.110596 894.296204,869.116089 
	C899.635742,867.071167 902.709778,862.254761 902.673645,856.996216 
	C902.639526,852.023071 898.969849,848.213013 894.162537,846.003357 
	C887.317444,842.856995 880.262695,840.574951 872.635620,841.030212 
	C863.634827,841.567383 854.647644,842.333252 844.766113,843.003052 
z" data-index="6" style="visibility: visible; opacity: 1;"></path>
<path fill="#DCC9F6" opacity="1.000000" stroke="none" d="
M2843.000000,914.999512 
	C2804.179199,914.999512 2765.858398,914.999512 2727.388916,914.999512 
	C2730.609863,933.506592 2739.555176,948.342896 2754.697266,959.006897 
	C2762.948975,964.818298 2772.645264,967.451660 2782.640137,969.061340 
	C2795.157959,971.077393 2807.820801,971.165039 2820.029541,968.737671 
	C2837.496338,965.264893 2854.286865,959.327881 2867.337402,946.142456 
	C2870.612305,942.833801 2873.625000,939.248840 2877.072754,936.139526 
	C2877.922119,935.373535 2880.205322,935.488464 2881.488770,936.020569 
	C2897.654541,942.723206 2913.652588,949.842224 2929.907959,956.315918 
	C2945.514893,962.531189 2961.371826,968.118713 2977.120605,973.977844 
	C2978.325928,974.426392 2979.543945,974.841797 2980.754883,975.272217 
	C2974.002441,990.771912 2964.381592,1004.230896 2951.962646,1015.469055 
	C2935.892334,1030.011475 2917.361084,1040.783447 2896.909180,1047.850342 
	C2885.250244,1051.879150 2873.256104,1055.126465 2861.201660,1057.759277 
	C2852.485352,1059.663208 2843.445312,1060.337769 2834.507812,1060.919434 
	C2819.686523,1061.884033 2804.837158,1062.673950 2789.989502,1062.912109 
	C2772.113770,1063.198730 2754.427734,1061.381958 2736.750488,1058.228516 
	C2716.604492,1054.634521 2697.488037,1048.772583 2679.414795,1039.138672 
	C2661.053223,1029.350830 2646.158691,1015.798157 2633.978516,999.101685 
	C2619.758545,979.609009 2611.057861,957.535522 2607.384766,934.028198 
	C2604.826416,917.654724 2604.359863,900.671814 2605.330811,884.100098 
	C2606.580322,862.783752 2611.881592,842.104309 2621.971680,822.909546 
	C2631.533691,804.719421 2644.220703,789.174866 2660.203125,776.296509 
	C2679.258789,760.941895 2701.032471,751.448486 2724.973389,747.053223 
	C2738.376465,744.592529 2751.878662,742.179077 2765.441162,741.205750 
	C2782.131836,740.008057 2798.978760,739.415894 2815.669678,740.278625 
	C2830.048584,741.021851 2844.394531,743.691589 2858.590332,746.379639 
	C2876.902832,749.847290 2893.990723,757.103882 2910.205322,766.111572 
	C2925.959961,774.863831 2940.324463,785.596741 2951.464600,800.034912 
	C2956.891602,807.068176 2962.574219,814.034119 2966.974121,821.700500 
	C2974.412109,834.661499 2979.869629,848.593933 2981.901611,863.506409 
	C2983.402344,874.520813 2984.323242,885.642395 2984.868652,896.747375 
	C2985.156006,902.600952 2984.086670,908.521240 2983.584229,914.999512 
	C2937.016602,914.999512 2890.258301,914.999512 2843.000000,914.999512 
M2844.999023,840.589355 
	C2842.155273,838.438599 2839.535156,835.868042 2836.427490,834.212158 
	C2825.066895,828.158813 2812.802246,826.581177 2800.031982,826.918640 
	C2782.002686,827.395081 2764.978516,830.550903 2750.256592,841.933044 
	C2742.107666,848.233276 2735.961914,855.913330 2731.811035,865.760376 
	C2776.077393,865.760376 2819.915527,865.760376 2864.251221,865.760376 
	C2859.618652,855.946228 2854.653320,846.964233 2844.999023,840.589355 
z" data-index="7" style="visibility: visible; opacity: 1;"></path>
<path fill="#DCC9F6" opacity="1.000000" stroke="none" d="
M2563.748779,1006.421753 
	C2564.458496,1023.446289 2564.945068,1040.049438 2565.454834,1057.435425 
	C2556.836670,1056.964722 2548.129883,1056.163452 2539.415771,1056.078003 
	C2518.588135,1055.873657 2497.756836,1055.916870 2476.927979,1056.049194 
	C2469.008057,1056.099487 2461.090332,1056.649414 2453.173340,1057.010254 
	C2450.727783,1057.121582 2449.436279,1056.632446 2448.886475,1053.652466 
	C2445.780518,1036.819214 2442.337402,1020.047974 2438.996826,1003.258118 
	C2437.166748,994.060059 2435.312012,984.866882 2433.609375,976.373901 
	C2430.774414,983.424622 2428.250732,991.488098 2424.392334,998.852356 
	C2419.338379,1008.498596 2413.949707,1018.133179 2407.427246,1026.812622 
	C2393.623047,1045.181519 2374.220703,1055.766846 2352.302979,1060.589966 
	C2331.512695,1065.165039 2310.375000,1064.307251 2289.746094,1058.012939 
	C2271.428467,1052.423828 2256.009033,1042.199341 2243.486572,1027.891968 
	C2231.038818,1013.669800 2223.106934,996.891479 2220.206055,978.292847 
	C2218.140869,965.052979 2217.266602,951.520081 2217.137939,938.105713 
	C2216.754150,898.116394 2217.086426,858.120667 2216.954102,818.128052 
	C2216.906250,803.712830 2216.492432,789.293274 2215.944336,774.887146 
	C2215.571045,765.074646 2214.674316,755.282043 2213.994873,745.234253 
	C2257.005127,745.234253 2299.750977,745.234253 2343.430420,745.234253 
	C2342.958008,754.691162 2342.489746,764.034485 2342.027832,773.378113 
	C2341.995117,774.043274 2342.009033,774.710693 2341.999756,775.377075 
	C2341.668945,799.456909 2341.346680,823.536926 2341.005371,847.616577 
	C2340.680664,870.526489 2339.818848,893.444580 2340.191162,916.342773 
	C2340.421143,930.458984 2344.129150,944.041748 2354.872559,954.285889 
	C2371.239502,969.892212 2394.939209,970.346252 2411.138184,952.584106 
	C2422.049072,940.620361 2427.206055,926.674927 2428.956055,911.075500 
	C2429.578613,905.525757 2429.878906,899.919434 2429.964600,894.333435 
	C2430.377197,867.419739 2430.830811,840.504761 2430.932129,813.588989 
	C2430.984619,799.674011 2430.430664,785.753113 2429.964600,771.841064 
	C2429.672119,763.109558 2429.034668,754.389526 2428.532715,745.317505 
	C2474.583008,745.317505 2519.979980,745.317505 2565.784912,745.317505 
	C2565.372070,754.166626 2564.967041,763.114563 2564.519775,772.060364 
	C2564.471924,773.019409 2564.044678,773.962769 2564.020264,774.919128 
	C2563.657715,789.169250 2563.154297,803.418884 2563.032471,817.671570 
	C2562.614502,866.575806 2562.202881,915.480835 2562.083008,964.386292 
	C2562.049072,978.256470 2563.017334,992.128967 2563.748779,1006.421753 
z" data-index="8" style="visibility: visible; opacity: 1;"></path>
<path fill="#DCC9F6" opacity="1.000000" stroke="none" d="
M1526.000000,859.000000 
	C1526.008911,874.331970 1526.563110,889.190125 1525.854126,903.987732 
	C1525.287720,915.808044 1525.911621,927.300659 1530.052246,938.362610 
	C1536.489136,955.559509 1552.796265,967.721497 1571.761841,965.809448 
	C1585.631226,964.411194 1595.838257,956.240234 1603.158203,944.441711 
	C1611.791504,930.526672 1615.073486,915.362488 1615.091064,899.075684 
	C1615.129150,863.659790 1615.889648,828.244507 1615.890259,792.828979 
	C1615.890625,778.659058 1614.659180,764.489563 1614.009888,750.318787 
	C1613.935303,748.691223 1613.999878,747.057251 1613.999878,745.223022 
	C1659.772217,745.223022 1705.172607,745.223022 1751.404907,745.223022 
	C1750.621582,757.549377 1749.844971,769.660706 1749.091064,781.773438 
	C1748.998291,783.265808 1749.022461,784.765808 1749.000488,786.262329 
	C1748.669312,808.847473 1748.306396,831.432129 1748.018311,854.017822 
	C1747.647339,883.099304 1747.168091,912.180969 1747.068237,941.263672 
	C1747.015381,956.679199 1747.626831,972.098083 1748.013794,987.513611 
	C1748.275269,997.932251 1748.513184,1008.355530 1749.041870,1018.762451 
	C1749.677002,1031.261108 1750.609985,1043.744507 1751.431274,1056.501953 
	C1712.519287,1056.501953 1674.113892,1056.501953 1634.991089,1056.501953 
	C1629.788696,1030.347656 1624.492554,1003.722168 1618.930908,975.761963 
	C1613.310303,992.792419 1607.046875,1007.820496 1597.358887,1021.274841 
	C1585.858643,1037.245972 1571.107910,1048.837158 1552.774048,1056.020630 
	C1535.622314,1062.740967 1517.690063,1064.148071 1499.695190,1062.800171 
	C1482.406982,1061.505127 1465.858154,1056.685791 1451.076782,1047.039429 
	C1430.984131,1033.927124 1416.955688,1015.849792 1409.276611,993.326660 
	C1404.884521,980.444275 1402.746582,966.927795 1402.904785,953.067627 
	C1403.224609,925.073730 1403.129639,897.072876 1402.962036,869.076355 
	C1402.806763,843.155212 1402.494629,817.232544 1401.934570,791.317383 
	C1401.638916,777.638184 1400.658569,763.973999 1400.010254,750.301941 
	C1399.933472,748.680969 1400.000000,747.053162 1400.000000,745.217102 
	C1443.122314,745.217102 1485.856323,745.217102 1529.206787,745.217102 
	C1528.473999,759.036011 1527.648438,772.642578 1527.075562,786.259705 
	C1526.802612,792.747864 1527.090942,799.257568 1526.984497,805.755188 
	C1526.696533,823.337463 1526.333374,840.918457 1526.000000,859.000000 
z" data-index="9" style="visibility: visible; opacity: 1;"></path>
<path fill="#DCC9F6" opacity="1.000000" stroke="none" d="
M1525.000244,381.000000 
	C1525.000244,262.818726 1525.000244,145.137451 1525.000244,27.000504 
	C1525.811279,27.000504 1527.260498,27.000504 1528.709717,27.000504 
	C1570.532715,27.000505 1612.355713,27.009033 1654.178711,26.985935 
	C1657.927979,26.983866 1661.765137,26.613510 1659.080566,32.432911 
	C1658.635864,33.396957 1659.000366,34.737049 1659.000610,35.903339 
	C1659.008789,65.229370 1659.149780,94.556137 1658.984497,123.881180 
	C1658.860962,145.799026 1658.029907,167.715240 1658.072144,189.631119 
	C1658.137695,223.707550 1658.932373,257.783020 1658.942017,291.859039 
	C1658.950928,323.606689 1658.099365,355.354370 1658.073120,387.102386 
	C1658.050903,414.013123 1658.662109,440.924469 1659.013916,467.835266 
	C1659.030640,469.112518 1659.251953,470.387054 1659.390625,471.789459 
	C1614.569092,471.789459 1569.486084,471.789459 1525.000244,471.789459 
	C1525.000244,441.552002 1525.000244,411.526001 1525.000244,381.000000 
z" data-index="10" style="visibility: visible; opacity: 1;"></path>
<path fill="#DCC9F6" opacity="1.000000" stroke="none" d="
M1090.846680,745.028564 
	C1092.393921,745.368286 1093.473389,745.944092 1094.561646,745.961060 
	C1119.140991,746.344482 1143.721313,746.908936 1168.301025,746.889771 
	C1179.295532,746.881165 1190.285400,745.569824 1201.288940,745.179871 
	C1202.423828,745.139709 1204.385010,747.192688 1204.695435,748.561707 
	C1206.661255,757.232300 1208.220947,765.993958 1210.007080,774.706543 
	C1213.275146,790.646667 1216.620972,806.570923 1219.888062,822.511230 
	C1220.150269,823.790466 1220.057129,825.142456 1220.148804,826.821106 
	C1223.880737,818.194885 1227.072876,809.705872 1231.131470,801.653687 
	C1241.139404,781.798645 1255.978271,766.423401 1275.988037,756.578186 
	C1289.070679,750.141418 1303.031372,745.960754 1317.664307,745.091553 
	C1330.718628,744.316101 1343.819458,744.132935 1356.900757,744.104858 
	C1361.735229,744.094482 1366.572510,745.272034 1372.223267,746.014954 
	C1366.125122,788.660461 1360.052002,831.129944 1353.846802,874.523560 
	C1348.661377,872.931946 1343.798828,871.645142 1339.081543,869.953003 
	C1324.731567,864.805664 1310.053589,861.559326 1294.852539,859.773010 
	C1281.477661,858.201294 1268.827881,859.699707 1256.718994,864.890198 
	C1240.575806,871.809998 1231.697998,885.194580 1227.085815,901.536560 
	C1223.648438,913.715820 1222.958130,926.304810 1222.985474,938.932068 
	C1223.035645,962.091980 1222.897583,985.252747 1223.045044,1008.411804 
	C1223.113403,1019.160950 1223.571045,1029.911255 1224.042847,1040.652588 
	C1224.272583,1045.883667 1224.939331,1051.095459 1225.441040,1056.681885 
	C1179.426514,1056.681885 1134.032471,1056.681885 1087.686157,1056.681885 
	C1088.120239,1051.602051 1088.651611,1046.462036 1088.977051,1041.308960 
	C1089.403076,1034.563843 1089.791138,1027.812012 1089.974487,1021.056946 
	C1090.388306,1005.810364 1090.818726,990.561523 1090.970215,975.310913 
	C1091.388184,933.237671 1091.775879,891.163513 1091.938843,849.088745 
	C1091.993408,835.008972 1091.454712,820.922119 1090.967041,806.846191 
	C1090.447144,791.838623 1089.696411,776.838745 1088.982178,761.838562 
	C1088.763916,757.253601 1088.179688,752.680847 1088.118286,748.097717 
	C1088.104736,747.076904 1089.588623,746.036072 1090.846680,745.028564 
z" data-index="11" style="opacity: 1;"></path>

<path fill="#000000" opacity="1.000000" stroke="none" d="
M1325.626343,249.250458 
	C1338.699341,256.481232 1347.745117,266.709503 1353.354126,280.703003 
	C1273.439697,280.703003 1194.084839,280.703003 1114.404541,280.703003 
	C1118.794800,269.650391 1125.988647,260.976318 1136.030762,254.390503 
	C1146.785767,247.337006 1158.522827,244.210541 1171.260620,243.974594 
	C1203.087158,243.385101 1234.912354,242.154541 1266.735840,242.222763 
	C1281.899658,242.255249 1297.072632,244.520737 1312.210449,246.075928 
	C1316.628418,246.529816 1320.939697,248.021652 1325.626343,249.250458 
z" data-index="13" style="visibility: hidden; opacity: 1;"></path>

<path fill="#000000" opacity="1.000000" stroke="none" d="
M1926.308594,926.676880 
	C1921.522949,915.158020 1920.378418,903.744629 1921.733032,891.582092 
	C1922.891235,881.183655 1925.465454,871.462891 1930.882202,862.839722 
	C1940.214233,847.983704 1953.342163,838.679138 1971.489136,836.875427 
	C1988.972168,835.137817 2005.443115,837.077881 2020.426880,846.864807 
	C2031.255615,853.937988 2037.324829,864.316162 2039.888672,876.666504 
	C2041.466919,884.269531 2042.848267,892.091370 2042.834351,899.812256 
	C2042.798706,919.652588 2035.395508,936.134949 2018.645264,947.776184 
	C2008.272217,954.985291 1996.881714,958.164062 1984.248535,959.223083 
	C1964.663574,960.864929 1948.701782,954.239258 1935.381836,940.635071 
	C1931.667847,936.841980 1929.463257,931.571106 1926.308594,926.676880 
z" data-index="15" style="visibility: hidden; opacity: 1;"></path>

<path fill="#000000" opacity="1.000000" stroke="none" d="
M845.210327,843.001526 
	C854.647644,842.333252 863.634827,841.567383 872.635620,841.030212 
	C880.262695,840.574951 887.317444,842.856995 894.162537,846.003357 
	C898.969849,848.213013 902.639526,852.023071 902.673645,856.996216 
	C902.709778,862.254761 899.635742,867.071167 894.296204,869.116089 
	C889.088379,871.110596 883.672791,873.484558 878.239868,873.795471 
	C862.361877,874.704224 846.417664,874.390503 830.522522,875.084839 
	C817.081909,875.671936 803.675720,877.026794 790.249207,877.969543 
	C787.671448,878.150574 785.070129,877.995544 781.564575,877.995544 
	C797.379639,861.347961 815.345703,850.269714 836.797546,844.999695 
	C839.456787,844.346436 842.110046,843.669189 845.210327,843.001526 
z" data-index="17" style="opacity: 1; visibility: hidden;"></path>

</svg>