<?xml version="1.0" encoding="UTF-8"?>
<svg version="1.1" xmlns="http://www.w3.org/2000/svg" width="1920" height="905">
<path d="M0 0 C0.87140625 0.4434375 1.7428125 0.886875 2.640625 1.34375 C17.09122172 9.32260709 24.14854829 21.37006182 29.01953125 36.58203125 C32.92148754 50.18446851 30.69500956 61.95679234 24.4375 74.5625 C18.71279361 84.42970749 10.69787812 92.0355911 1.3125 98.37890625 C-0.98085477 99.86659963 -0.98085477 99.86659963 -2.50390625 101.6171875 C-4.49545931 103.45794411 -6.32927752 103.87612566 -8.9375 104.5625 C-11.48386572 105.24229899 -13.73243264 105.85888225 -16.06640625 107.08984375 C-18 108 -18 108 -22 108 C-22.33 108.99 -22.66 109.98 -23 111 C-24.11375 110.95875 -25.2275 110.9175 -26.375 110.875 C-32.05543831 110.88508959 -38.5109072 111.21082785 -43.22265625 114.59765625 C-47.29215237 116.65243699 -50.80060941 116.04875148 -55.25 115.625 C-58.16750713 115.3796022 -61.07648035 115.17162362 -64 115 C-64.33 115.33 -64.66 115.66 -65 116 C-66.85369611 116.08737645 -68.71067541 116.10698153 -70.56640625 116.09765625 C-71.69111328 116.09443359 -72.81582031 116.09121094 -73.97460938 116.08789062 C-75.15861328 116.07951172 -76.34261719 116.07113281 -77.5625 116.0625 C-78.75037109 116.05798828 -79.93824219 116.05347656 -81.16210938 116.04882812 C-84.10812226 116.03699675 -87.05403681 116.02051287 -90 116 C-90.33 115.34 -90.66 114.68 -91 114 C-93.16538092 113.33927351 -95.35995063 112.77365094 -97.5625 112.25 C-104.09500574 110.63334173 -110.29874189 108.52157696 -116.54321289 106.01855469 C-120.35496009 104.5144466 -123.93393332 103.52000545 -128 103 C-128.33 102.01 -128.66 101.02 -129 100 C-130.62398187 99.07250942 -130.62398187 99.07250942 -132.6875 98.375 C-145.70465908 92.89625899 -157.87948144 83.54158248 -167.58203125 73.3359375 C-169.05644511 71.83826342 -169.05644511 71.83826342 -171.4453125 70.6328125 C-174.42975819 68.72532275 -175.8760294 66.78636382 -177.875 63.875 C-181.00952602 59.39625599 -184.2538287 55.0583889 -187.65234375 50.77734375 C-190.1578847 47.47293467 -190.506296 45.13475069 -190 41 C-185.66184003 37.45302085 -180.47697306 36.87923235 -175.125 35.875 C-164.30811024 33.72843407 -153.54580671 31.37989943 -142.7958374 28.92169189 C-141.0151383 28.51553184 -139.2337612 28.11233296 -137.45172119 27.71209717 C-134.92705071 27.14468222 -132.40473421 26.56777442 -129.8828125 25.98828125 C-129.11614258 25.81759628 -128.34947266 25.64691132 -127.55957031 25.47105408 C-123.36511675 24.54597211 -123.36511675 24.54597211 -120 22 C-117.66666667 22 -115.33333333 22 -113 22 C-95.13115543 19.22584148 -78.90808159 11.71959034 -63.125 3.25 C-42.84318448 -7.62295367 -21.11146573 -10.98284344 0 0 Z " fill="#000000" transform="translate(397,284)"/>
<path d="M0 0 C5.94 0 11.88 0 18 0 C18 0.33 18 0.66 18 1 C19.06927734 0.96519531 19.06927734 0.96519531 20.16015625 0.9296875 C21.11792969 0.91164063 22.07570313 0.89359375 23.0625 0.875 C24.00222656 0.85179687 24.94195313 0.82859375 25.91015625 0.8046875 C29.50893074 1.03217008 32.5534513 1.94958765 36 3 C38.52075834 3.56283599 41.04159519 4.12532042 43.5625 4.6875 C56.96587159 7.90812576 70.91363163 14.39781929 79 26 C76.48817968 33.47305549 73.1197786 39.03772619 68 45 C67.43023438 45.6909375 66.86046875 46.381875 66.2734375 47.09375 C62.22454254 51.90065726 57.80474663 55.96529623 53 60 C52.05253906 60.82371094 51.10507813 61.64742187 50.12890625 62.49609375 C31.98865984 78.21820761 9.70772238 95.61451419 -13.3515625 103.0859375 C-16.1434574 103.7039273 -16.1434574 103.7039273 -17 106 C-20.26550504 107.11099139 -23.57202247 107.99145183 -26.8984375 108.90234375 C-29.91958928 109.9715423 -30.91333107 110.73215323 -33 113 C-36.86146303 113.82745636 -39.22941703 114.25686099 -43 113 C-43.495 114.485 -43.495 114.485 -44 116 C-44.77085938 116.04898438 -45.54171875 116.09796875 -46.3359375 116.1484375 C-47.84027344 116.26058594 -47.84027344 116.26058594 -49.375 116.375 C-50.37273437 116.44460938 -51.37046875 116.51421875 -52.3984375 116.5859375 C-55.15508879 116.76363964 -55.15508879 116.76363964 -57 119 C-59.84460257 119.11961919 -62.59794278 119.13987852 -65.4375 119.0625 C-71.29644109 118.83932588 -71.29644109 118.83932588 -77 120 C-80.5625 120.1875 -80.5625 120.1875 -84 120 C-84.99 119.01 -84.99 119.01 -86 118 C-87.89232494 117.40637998 -87.89232494 117.40637998 -90.0625 117.03515625 C-90.85914063 116.87466797 -91.65578125 116.71417969 -92.4765625 116.54882812 C-94.15813252 116.22474845 -95.84043202 115.90443113 -97.5234375 115.58789062 C-98.71839844 115.34522461 -98.71839844 115.34522461 -99.9375 115.09765625 C-100.66839844 114.95851807 -101.39929687 114.81937988 -102.15234375 114.67602539 C-104 114 -104 114 -106 111 C-108.58380177 110.74969023 -108.58380177 110.74969023 -111 111 C-111.33 110.01 -111.66 109.02 -112 108 C-113.4540625 107.5359375 -113.4540625 107.5359375 -114.9375 107.0625 C-118 106 -118 106 -118.90625 104.15234375 C-120.31482755 101.38046436 -122.03989874 100.30016616 -124.5625 98.5 C-136.48691934 89.17008689 -144.57116248 74.69731764 -148 60 C-148.30500665 57.24330133 -148.38130283 54.52229777 -148.375 51.75 C-148.37338867 51.00709717 -148.37177734 50.26419434 -148.37011719 49.4987793 C-148.1791454 40.86105067 -145.71195312 32.63821579 -140 26 C-132.91932163 20.45063285 -127.04090647 18.02523919 -118 19 C-115.21517356 19.90528621 -112.67750096 21.19218301 -110.0625 22.5 C-97.46277727 28.17170209 -85.17926706 27.64820462 -72.296875 22.82421875 C-67.81102493 20.96165369 -63.38850947 18.95439966 -58.95727539 16.96630859 C-39.423541 8.20653791 -21.17809451 4.03389714 0 1 C0 0.67 0 0.34 0 0 Z " fill="#000000" transform="translate(1548,644)"/>
<path d="M0 0 C31.23429598 -0.71976929 82.29731894 -0.86435632 108 20 C103.84744656 25.36056899 99.67974636 30.50756621 94.78857422 35.21044922 C93.14682719 36.85309264 91.65798852 38.54009482 90.1640625 40.31640625 C84.9925844 46.26213941 79.41187077 51.81129429 73.85083008 57.3894043 C71.95897863 59.29091174 70.07811926 61.20285667 68.19726562 63.11523438 C60.26716278 71.1141774 52.02781674 78.2694628 43 85 C42.25806396 85.56340088 41.51612793 86.12680176 40.75170898 86.70727539 C33.8458412 91.91040219 26.9033389 96.44793757 19 100 C15.84922659 101.30020171 15.84922659 101.30020171 14 104 C11.92127261 104.74219555 9.81035957 105.39549271 7.6875 106 C0.72573515 107.88381792 0.72573515 107.88381792 -5 112 C-7.33628839 112.37723556 -9.64304686 112.505155 -12.00390625 112.65625 C-12.99197266 112.82640625 -12.99197266 112.82640625 -14 113 C-14.33 113.66 -14.66 114.32 -15 115 C-15.5775 114.79375 -16.155 114.5875 -16.75 114.375 C-19.58134621 113.90310896 -20.48055068 114.72888701 -23 116 C-30.09109026 117.54449526 -37.54571556 117.04288529 -44.75 116.9375 C-52.98106413 116.85787246 -60.71833268 116.96199435 -68.77734375 118.7578125 C-71 119 -71 119 -74 117 C-76.87478167 116.83300768 -76.87478167 116.83300768 -80 117 C-85.66666667 117.22222222 -85.66666667 117.22222222 -89 115 C-92.20379124 114.75753217 -92.20379124 114.75753217 -95.6875 114.875 C-97.45673828 114.90207031 -97.45673828 114.90207031 -99.26171875 114.9296875 C-100.16535156 114.95289063 -101.06898437 114.97609375 -102 115 C-102 114.34 -102 113.68 -102 113 C-104.97 113.495 -104.97 113.495 -108 114 C-113.87126311 96.38621068 -104.76389373 76.83991541 -97.1953125 60.98388672 C-83.31514118 33.38909956 -58.69643898 18.71826886 -30.17651367 9.24853516 C-20.20016288 6.03018652 -10.2484002 3.22097956 0 1 C0 0.67 0 0.34 0 0 Z " fill="#000000" transform="translate(1294,370)"/>
<path d="M0 0 C20.09661409 -0.62887364 40.75097522 5.57168069 55.6875 19.35546875 C62.27170049 26.31556282 65.48499044 32.44727797 65.74609375 42.09765625 C65.14916128 60.04414227 55.02184149 74.03973318 42.28344727 86.00610352 C38.83431075 89.18868256 35.38968311 92.32162929 31.6796875 95.19921875 C29.13042268 97.30750695 27.18891512 99.51772902 25.12109375 102.09765625 C24.34378906 103.06574219 23.56648438 104.03382813 22.765625 105.03125 C20.25800004 108.22458481 17.77737637 111.43679714 15.30859375 114.66015625 C13.64408304 116.82848931 11.976932 118.99476735 10.30859375 121.16015625 C9.14457031 122.67416016 9.14457031 122.67416016 7.95703125 124.21875 C2.05243857 131.69587165 -4.24508734 138.52757557 -13.69140625 141.16015625 C-27.07768036 141.59725908 -40.28148167 137.64995755 -50.69140625 129.16015625 C-62.91493069 117.2696445 -69.6841763 99.72212474 -71.31640625 82.91015625 C-71.40278379 79.08483844 -71.40278379 79.08483844 -73.69140625 76.16015625 C-74.08154341 74.17045675 -74.42343274 72.16995756 -74.69140625 70.16015625 C-75.02140625 70.16015625 -75.35140625 70.16015625 -75.69140625 70.16015625 C-75.624375 69.18046875 -75.55734375 68.20078125 -75.48828125 67.19140625 C-75.48290373 61.84615457 -77.77536873 57.28844244 -79.91015625 52.4765625 C-81.59353711 48.24515516 -81.97507303 46.85072807 -80.171875 42.4609375 C-65.24080253 20.98104146 -37.77276881 6.1072388 -12.69140625 1.16015625 C-8.4655329 0.4935943 -4.26586684 0.25384694 0 0 Z " fill="#000000" transform="translate(1710.69140625,324.83984375)"/>
<path d="M0 0 C37.52452856 1.07530764 62.05777667 19.0711269 90 42.625 C90.87217163 43.35178955 90.87217163 43.35178955 91.76196289 44.09326172 C97.46126567 48.980843 97.46126567 48.980843 98 52 C92.12210501 65.03553421 76.33972465 75.61119909 64.18359375 82.625 C61.73005495 83.96236144 61.73005495 83.96236144 60 87 C57.21484375 88.31640625 57.21484375 88.31640625 53.9375 89.5625 C49.67356641 90.86164604 49.67356641 90.86164604 47 94 C44.66666667 94.66666667 42.33333333 95.33333333 40 96 C39.67 96.66 39.34 97.32 39 98 C36.49609375 98.4140625 36.49609375 98.4140625 33.4375 98.625 C31.91962891 98.73714844 31.91962891 98.73714844 30.37109375 98.8515625 C29.58863281 98.90054688 28.80617188 98.94953125 28 99 C28 99.99 28 100.98 28 102 C27.34 102 26.68 102 26 102 C26 101.34 26 100.68 26 100 C24.94425781 100.29003906 24.94425781 100.29003906 23.8671875 100.5859375 C1.60314802 106.45713329 1.60314802 106.45713329 -8 103 C-8 103.66 -8 104.32 -8 105 C-13.625 105.25 -13.625 105.25 -17 103 C-19.33199388 102.92094936 -21.66832622 102.91201231 -24 103 C-24 102.01 -24 101.02 -24 100 C-24.99 99.9175 -25.98 99.835 -27 99.75 C-30.82379451 99.21590724 -33.77779523 97.78931567 -37.15234375 95.96875 C-39.09183895 94.89423874 -39.09183895 94.89423874 -41.6875 94.0625 C-44.78788148 92.6380004 -46.71529255 90.45635645 -49 88 C-55.12825835 81.57098157 -55.12825835 81.57098157 -62.0625 76.0625 C-63.031875 75.381875 -64.00125 74.70125 -65 74 C-65 73.34 -65 72.68 -65 72 C-65.5775 71.9175 -66.155 71.835 -66.75 71.75 C-69 71 -69 71 -70.80078125 69.18359375 C-73.18147793 66.81981143 -75.61329634 65.11826684 -78.4375 63.3125 C-79.36433594 62.71050781 -80.29117188 62.10851562 -81.24609375 61.48828125 C-83.88704917 59.85682358 -83.88704917 59.85682358 -86.72265625 59.60546875 C-87.47417969 59.40566406 -88.22570312 59.20585937 -89 59 C-90.3125 56.4375 -90.3125 56.4375 -91 54 C-88.61529935 51.69650928 -86.21542805 49.40945811 -83.8125 47.125 C-82.80219727 46.14853516 -82.80219727 46.14853516 -81.77148438 45.15234375 C-78.26436394 41.83341027 -75.55367785 39.6990193 -71 38 C-69.88044922 36.87851562 -69.88044922 36.87851562 -68.73828125 35.734375 C-65.23834446 32.23943099 -61.38086939 29.83879599 -57.1875 27.25 C-55.92715942 26.46556519 -55.92715942 26.46556519 -54.64135742 25.6652832 C-15.60398344 1.53543307 -15.60398344 1.53543307 0 2 C0 1.34 0 0.68 0 0 Z " fill="#000000" transform="translate(1016,379)"/>
<path d="M0 0 C0.66 0 1.32 0 2 0 C-0.32062908 26.6566998 -8.43200375 55.33113929 -29 74 C-32.5411087 76.37513388 -35.64283276 78 -40 78 C-40 78.99 -40 79.98 -40 81 C-40.66386719 81.06058594 -41.32773437 81.12117188 -42.01171875 81.18359375 C-43.33623047 81.30927734 -43.33623047 81.30927734 -44.6875 81.4375 C-45.55761719 81.51871094 -46.42773438 81.59992188 -47.32421875 81.68359375 C-49.93700827 81.94179506 -49.93700827 81.94179506 -52.20141602 82.51586914 C-55.66192318 83.11450699 -58.94108254 83.09364894 -62.453125 83.0625 C-63.15395203 83.05871338 -63.85477905 83.05492676 -64.57684326 83.05102539 C-66.80129315 83.03886755 -69.02560971 83.02022173 -71.25 83 C-74.19270445 82.97350052 -77.13534686 82.95348735 -80.078125 82.9375 C-81.38168945 82.92589844 -82.68525391 82.91429687 -84.02832031 82.90234375 C-86.88517023 82.65733668 -86.88517023 82.65733668 -88 84 C-91.10813256 84.07228215 -94.20426872 83.99614587 -97.3125 83.9375 C-99.918828 83.68866942 -99.918828 83.68866942 -101 85 C-102.99750448 85 -104.99555281 84.99644125 -106.9921875 84.9375 C-109.20917431 84.9105259 -109.20917431 84.9105259 -112 86 C-112.99 85.67 -113.98 85.34 -115 85 C-115.33 85.66 -115.66 86.32 -116 87 C-117.86289203 87.27096611 -119.72861138 87.52942642 -121.6015625 87.71875 C-126.8153081 88.33013385 -132.01973667 89.33991222 -137 91 C-137.33 91.66 -137.66 92.32 -138 93 C-138.72703125 93.26425781 -139.4540625 93.52851563 -140.203125 93.80078125 C-143.70158792 95.30082052 -146.05802025 97.5782763 -148.75 100.1875 C-149.81045121 101.18187695 -150.87296538 102.17405829 -151.9375 103.1640625 C-152.45699219 103.6477832 -152.97648437 104.13150391 -153.51171875 104.62988281 C-159.37875525 110.03109818 -164.03268317 113.69625725 -172 115 C-175.05307264 111.93073069 -175.40045979 109.26111732 -175.46875 105.01147461 C-175.4584375 104.24456299 -175.448125 103.47765137 -175.4375 102.6875 C-175.42847656 101.88642822 -175.41945313 101.08535645 -175.41015625 100.26000977 C-174.84285359 80.38668828 -165.21759808 62.22616397 -153 47 C-152.20722656 46.01128906 -151.41445313 45.02257812 -150.59765625 44.00390625 C-135.96199323 26.90129192 -115.91882521 18.76931706 -94 16 C-91.73879571 15.93180606 -89.47574576 15.91180903 -87.21362305 15.93408203 C-85.9050383 15.94384064 -84.59645355 15.95359924 -83.24821472 15.96365356 C-82.21326905 15.97469809 -82.21326905 15.97469809 -81.15741539 15.98596573 C-78.9739849 16.00819669 -76.79064387 16.02214095 -74.60713196 16.03366089 C-68.40308518 16.06705159 -62.19918595 16.10865323 -55.99536133 16.17138672 C-52.18771048 16.20929879 -48.38020917 16.23213658 -44.57239723 16.24569321 C-43.13204586 16.25367976 -41.69171296 16.2671907 -40.25147057 16.28662491 C-26.44329673 16.46969517 -16.40407953 13.98454017 -5 6 C-3.08048788 4.09297928 -1.60241299 2.18996442 0 0 Z " fill="#000000" transform="translate(585,351)"/>
<path d="M0 0 C7.26 0 14.52 0 22 0 C22 0.33 22 0.66 22 1 C22.54712646 1.08975098 23.09425293 1.17950195 23.65795898 1.27197266 C50.3732007 5.75194323 83.97774956 15.8799963 100.75 38.9375 C106.91446005 47.79531058 108.37577915 56.44024607 107 67 C104.49067593 76.308091 98.81452014 87.09146038 91 93 C87.1875 93.3125 87.1875 93.3125 84 93 C84 93.99 84 94.98 84 96 C83.04287109 95.98259766 83.04287109 95.98259766 82.06640625 95.96484375 C80.82697266 95.95130859 80.82697266 95.95130859 79.5625 95.9375 C78.73878906 95.92589844 77.91507813 95.91429687 77.06640625 95.90234375 C75.00836062 95.76732652 75.00836062 95.76732652 74 97 C72.05935877 97.09993586 70.11508666 97.13080919 68.171875 97.1328125 C66.97949219 97.13410156 65.78710938 97.13539063 64.55859375 97.13671875 C62.67333984 97.13091797 62.67333984 97.13091797 60.75 97.125 C59.50863281 97.12886719 58.26726562 97.13273438 56.98828125 97.13671875 C55.19197266 97.13478516 55.19197266 97.13478516 53.359375 97.1328125 C52.26077148 97.13168457 51.16216797 97.13055664 50.03027344 97.12939453 C47.23409914 97.00999618 44.72546515 96.60160969 42 96 C41.34 96 40.68 96 40 96 C39.55914063 95.51144531 39.11828125 95.02289062 38.6640625 94.51953125 C36.48589137 92.53054399 35.28317122 92.70134843 32.375 92.6875 C27.20784243 92.32055693 24.3817616 90.64230515 20.27734375 87.60546875 C17.94799803 85.96333995 15.63938356 84.77254985 13.0625 83.5625 C8.42449937 81.333663 4.39824187 78.5758252 0.24609375 75.55078125 C-2.06488569 73.85590195 -2.06488569 73.85590195 -5.1875 72.5625 C-8.71990265 70.60005408 -10.76437153 68.08984864 -13.3203125 65 C-14.7843276 63.25680063 -16.28884812 61.68982213 -17.9375 60.125 C-20 58 -20 58 -20 56 C-21.32 56 -22.64 56 -24 56 C-24.226875 55.113125 -24.45375 54.22625 -24.6875 53.3125 C-25.76718212 49.93588867 -25.76718212 49.93588867 -28.2109375 47.82421875 C-31.65290941 44.33886064 -34.25000674 40.57879056 -36.9375 36.5 C-37.45634766 35.75363281 -37.97519531 35.00726562 -38.50976562 34.23828125 C-42.11557588 28.76906569 -42.11557588 28.76906569 -41.58203125 25.21875 C-39.83308507 22.76590696 -38.05370562 20.94326188 -35.75 19 C-35.00234375 18.360625 -34.2546875 17.72125 -33.484375 17.0625 C-32.66453125 16.381875 -31.8446875 15.70125 -31 15 C-30.0615625 14.15695312 -29.123125 13.31390625 -28.15625 12.4453125 C-24.7781872 9.82814998 -21.7320642 8.39951412 -17.75 6.875 C-17.09829834 6.62347168 -16.44659668 6.37194336 -15.77514648 6.11279297 C-10.5954856 4.14402422 -5.35322911 2.43592499 0 1 C0 0.67 0 0.34 0 0 Z " fill="#000000" transform="translate(1811,629)"/>
<path d="M0 0 C8.04103163 2.67424625 15.47373037 3.15876584 23.90600586 3.01904297 C32.19161688 2.88507998 32.19161688 2.88507998 35.59350586 4.01904297 C33.94926077 18.42036203 27.44285226 29.51771529 16.41381836 38.86669922 C7.09995549 46.01904297 7.09995549 46.01904297 3.59350586 46.01904297 C3.59350586 47.00904297 3.59350586 47.99904297 3.59350586 49.01904297 C-28.8799188 61.57356352 -28.8799188 61.57356352 -44.40649414 61.01904297 C-44.90149414 62.50404297 -44.90149414 62.50404297 -45.40649414 64.01904297 C-46.89149414 63.52404297 -46.89149414 63.52404297 -48.40649414 63.01904297 C-48.73649414 63.67904297 -49.06649414 64.33904297 -49.40649414 65.01904297 C-50.68524414 65.10154297 -51.96399414 65.18404297 -53.28149414 65.26904297 C-59.5013277 65.8146424 -64.17798728 68.79776475 -69.40649414 72.01904297 C-70.3771582 72.60298828 -70.3771582 72.60298828 -71.36743164 73.19873047 C-74.14280857 74.94518717 -75.55123297 76.23615121 -77.40649414 79.01904297 C-79.33227539 80.12451172 -79.33227539 80.12451172 -81.71899414 81.20654297 C-86.01662049 83.26192948 -90.04702388 85.56737438 -94.09399414 88.08154297 C-95.7452832 89.10441406 -95.7452832 89.10441406 -97.42993164 90.14794922 C-99.13495838 91.21974424 -100.8328558 92.30354824 -102.50805664 93.42138672 C-107.01278323 96.31140538 -110.2174704 96.38318499 -115.40649414 96.01904297 C-115.40649414 95.02904297 -115.40649414 94.03904297 -115.40649414 93.01904297 C-115.98399414 92.81279297 -116.56149414 92.60654297 -117.15649414 92.39404297 C-120.45313558 90.37942876 -121.67428226 88.48346673 -123.40649414 85.01904297 C-123.93348252 81.6386053 -123.69273026 78.41864729 -123.40649414 75.01904297 C-123.31239258 73.81763672 -123.21829102 72.61623047 -123.12133789 71.37841797 C-121.14002479 50.25230525 -113.43263223 33.08950595 -98.40649414 18.01904297 C-97.51188477 17.08060547 -96.61727539 16.14216797 -95.69555664 15.17529297 C-93.40649414 13.01904297 -93.40649414 13.01904297 -91.40649414 13.01904297 C-90.91149414 11.53404297 -90.91149414 11.53404297 -90.40649414 10.01904297 C-88.75649414 9.68904297 -87.10649414 9.35904297 -85.40649414 9.01904297 C-84.91149414 7.53404297 -84.91149414 7.53404297 -84.40649414 6.01904297 C-82.72338867 4.91577148 -82.72338867 4.91577148 -80.53930664 3.89794922 C-79.74089355 3.52154297 -78.94248047 3.14513672 -78.11987305 2.75732422 C-76.83862549 2.1753125 -76.83862549 2.1753125 -75.53149414 1.58154297 C-74.66830566 1.18193359 -73.80511719 0.78232422 -72.91577148 0.37060547 C-47.32089817 -11.34417429 -26.03991441 -8.81467783 0 0 Z " fill="#000000" transform="translate(564.406494140625,565.98095703125)"/>
<path d="M0 0 C3.62520605 0.14096513 7.25010841 0.28868399 10.875 0.4375 C11.88820313 0.47681641 12.90140625 0.51613281 13.9453125 0.55664062 C20.32741336 0.82256149 26.65251529 1.28289437 33 2 C31.64164076 4.33939647 30.28792527 6.62437336 28.640625 8.7734375 C22.91871567 16.47147016 20.87681433 25.30607446 18.32958984 34.39111328 C13.71259178 50.76047005 8.96974283 67.3945016 -3 80 C-3.80695313 80.89589844 -4.61390625 81.79179688 -5.4453125 82.71484375 C-10.29663989 87.88514221 -14.0699354 91.26748385 -21 93 C-21.66 93 -22.32 93 -23 93 C-23.495 94.485 -23.495 94.485 -24 96 C-25.98 96 -27.96 96 -30 96 C-30.495 97.485 -30.495 97.485 -31 99 C-36.445 99.99 -36.445 99.99 -42 101 C-42 101.66 -42 102.32 -42 103 C-53.61635768 105.01720497 -64.99701468 105.28072647 -76.765625 105.20581055 C-79.78654221 105.1872758 -82.80715621 105.18530341 -85.828125 105.18554688 C-87.75521099 105.18064012 -89.68229492 105.17481552 -91.609375 105.16796875 C-92.50928162 105.16685593 -93.40918823 105.1657431 -94.33636475 105.16459656 C-95.58477142 105.15502678 -95.58477142 105.15502678 -96.85839844 105.14526367 C-97.5881488 105.14145187 -98.31789917 105.13764008 -99.06976318 105.13371277 C-101 105 -101 105 -104 104 C-102.6543964 101.02181574 -101.58991238 99.58991238 -99.1875 97.1875 C-93.56093916 90.72788039 -91.8195428 81.49885882 -89.859375 73.328125 C-85.79068073 56.42303521 -79.47989239 44.17374784 -67 32 C-66.28199219 31.27296875 -65.56398438 30.5459375 -64.82421875 29.796875 C-48.61014834 14.28510896 -24.85625127 5.46523926 -2.90625 2.45703125 C-1.96265625 2.23080078 -1.96265625 2.23080078 -1 2 C-0.67 1.34 -0.34 0.68 0 0 Z " fill="#000000" transform="translate(1320,800)"/>
<path d="M0 0 C1.77049689 -0.05410687 3.54146849 -0.09284119 5.3125 -0.125 C6.29863281 -0.14820313 7.28476563 -0.17140625 8.30078125 -0.1953125 C11 0 11 0 14 2 C15.57490068 2.60573103 17.15937302 3.18685877 18.75 3.75 C26.47598111 6.8359201 30.38785941 11.04638449 35.125 17.8125 C41.96867811 27.18182123 52.40520026 34.85654446 64 37 C73.36804826 37.82451203 82.91090891 37.55773418 92 35 C91.36503655 40.34657627 89.13770715 42.17087103 85.140625 45.4921875 C82.56342239 47.30751635 80.03153989 48.18666003 77 49 C76.67 49.66 76.34 50.32 76 51 C74.02 51 72.04 51 70 51 C69.67 51.99 69.34 52.98 69 54 C68.0925 53.95875 67.185 53.9175 66.25 53.875 C63.10359074 53.99601574 61.57843802 54.28104132 59 56 C58.67 56.66 58.34 57.32 58 58 C56.865625 58.144375 55.73125 58.28875 54.5625 58.4375 C53.386875 58.623125 52.21125 58.80875 51 59 C50.34 59.99 49.68 60.98 49 62 C46.828125 63.09765625 46.828125 63.09765625 44.25 64.0625 C43.36054688 64.39894531 42.47109375 64.73539062 41.5546875 65.08203125 C38.71717927 66.10162518 35.87534135 67.09199747 33 68 C33 68.99 33 69.98 33 71 C31.12577848 71.48220263 29.25058246 71.96061833 27.375 72.4375 C26.33085937 72.70433594 25.28671875 72.97117187 24.2109375 73.24609375 C21.15108876 73.96452539 18.1051949 74.51976716 15 75 C14.505 76.485 14.505 76.485 14 78 C13.34 77.67 12.68 77.34 12 77 C11.34 77.66 10.68 78.32 10 79 C8.046875 79.08984375 8.046875 79.08984375 5.75 78.9375 C1.33945657 78.81791589 -1.06366053 79.98995431 -5 82 C-9.8062621 82.65800017 -13.56636554 81.81892696 -18 80 C-19.216875 80 -20.43375 80 -21.6875 80 C-22.780625 80 -23.87375 80 -25 80 C-25.99 79.01 -25.99 79.01 -27 78 C-29.53045124 77.38859617 -32.00235495 76.87856389 -34.5625 76.4375 C-35.28252197 76.30674072 -36.00254395 76.17598145 -36.74438477 76.04125977 C-40.63524178 75.35082638 -44.49966353 74.79432661 -48.4375 74.4375 C-50.2009375 74.2209375 -50.2009375 74.2209375 -52 74 C-52.33 73.34 -52.66 72.68 -53 72 C-55.71144942 71.24055684 -58.37609555 70.58839426 -61.125 70 C-62.62796789 69.66831053 -64.13057751 69.33499317 -65.6328125 69 C-66.37039795 68.83741699 -67.1079834 68.67483398 -67.86791992 68.50732422 C-69.82601768 68.04139875 -71.75746353 67.46698349 -73.68359375 66.8828125 C-76.94100491 66.01570423 -79.5827005 65.79216544 -82.9375 65.875 C-83.89527344 65.89304687 -84.85304688 65.91109375 -85.83984375 65.9296875 C-86.55269531 65.95289062 -87.26554687 65.97609375 -88 66 C-88.66 64.02 -89.32 62.04 -90 60 C-89.01 60 -88.02 60 -87 60 C-86.73832031 59.44183594 -86.47664063 58.88367188 -86.20703125 58.30859375 C-82.87063821 51.92733716 -78.48367945 45.70029667 -73 41 C-72.34 41 -71.68 41 -71 41 C-70.74089844 40.40832031 -70.48179688 39.81664062 -70.21484375 39.20703125 C-66.10639483 31.74312888 -57.01181611 27.30898551 -50 23 C-48.75351683 22.19662885 -47.50881727 21.39048563 -46.265625 20.58203125 C-31.67944328 11.15542846 -17.20951458 4.26277042 0 1 C0 0.67 0 0.34 0 0 Z " fill="#000000" transform="translate(176,56)"/>
<path d="M0 0 C0.81571218 2.56151683 1.62766131 5.12412628 2.4375 7.6875 C2.66759766 8.40873047 2.89769531 9.12996094 3.13476562 9.87304688 C7.60396532 24.05789808 8.35452097 40.89623375 1.78125 54.52734375 C-1.90207031 61.16755175 -6.7433853 66.56765544 -12 72 C-12.53753906 72.55800293 -13.07507813 73.11600586 -13.62890625 73.69091797 C-24.74078296 85.17878379 -33.53205428 92.94886462 -49 98 C-51.36914836 98.93935978 -53.67777856 99.94947125 -56 101 C-56 100.34 -56 99.68 -56 99 C-61.94 99.99 -61.94 99.99 -68 101 C-68 100.01 -68 99.02 -68 98 C-68.845625 97.96261719 -69.69125 97.92523437 -70.5625 97.88671875 C-77.31064379 97.49563314 -82.82797163 96.78346377 -89 94 C-89 93.01 -89 92.02 -89 91 C-90.11375 90.71125 -91.2275 90.4225 -92.375 90.125 C-96 89 -96 89 -98 87 C-97.74620831 72.28008179 -83.59175146 60.52966892 -74 51 C-73.34902344 50.32839844 -72.69804688 49.65679688 -72.02734375 48.96484375 C-66.51052546 43.61301442 -60.615988 39.80386031 -54 35.9375 C-44.66668982 30.48261336 -36.70466463 24.88612431 -29.25 17 C-23.55091394 11.14785792 -17.1717119 7.77979753 -10 4 C-8.75274898 3.25975895 -7.50664401 2.51758333 -6.26171875 1.7734375 C-3 0 -3 0 0 0 Z " fill="#000000" transform="translate(809,573)"/>
<path d="M0 0 C1.19367188 -0.02578125 2.38734375 -0.0515625 3.6171875 -0.078125 C7.48534239 0.28370686 9.86167771 1.16537024 13.125 3.25 C17.25965077 15.65395232 13.85553374 33.49091529 8.8125 45.1875 C5.12566273 52.5171526 1.27071881 58.89071089 -5.359375 63.86328125 C-7.01474411 65.20033408 -7.01474411 65.20033408 -7.85546875 67.34765625 C-8.875 69.25 -8.875 69.25 -12.4375 70.375 C-13.571875 70.66375 -14.70625 70.9525 -15.875 71.25 C-16.205 71.91 -16.535 72.57 -16.875 73.25 C-19.375 73.9375 -19.375 73.9375 -21.875 74.25 C-22.205 73.92 -22.535 73.59 -22.875 73.25 C-23.205 73.91 -23.535 74.57 -23.875 75.25 C-24.83212891 75.23259766 -24.83212891 75.23259766 -25.80859375 75.21484375 C-27.04802734 75.20130859 -27.04802734 75.20130859 -28.3125 75.1875 C-29.13621094 75.17589844 -29.95992187 75.16429687 -30.80859375 75.15234375 C-32.86663938 75.01732652 -32.86663938 75.01732652 -33.875 76.25 C-35.87458364 76.29080783 -37.87545254 76.29254356 -39.875 76.25 C-39.875 75.59 -39.875 74.93 -39.875 74.25 C-40.68582031 74.15203125 -41.49664063 74.0540625 -42.33203125 73.953125 C-56.8046332 71.99873405 -71.53680057 67.24742179 -80.875 55.25 C-80.875 54.59 -80.875 53.93 -80.875 53.25 C-81.865 52.92 -82.855 52.59 -83.875 52.25 C-83.875 51.59 -83.875 50.93 -83.875 50.25 C-84.45765625 50.023125 -85.0403125 49.79625 -85.640625 49.5625 C-88.48703354 47.8904838 -89.7746097 45.97023189 -91.625 43.25 C-92.23859375 42.363125 -92.8521875 41.47625 -93.484375 40.5625 C-94.875 38.25 -94.875 38.25 -94.875 36.25 C-93.9320105 36.18268677 -93.9320105 36.18268677 -92.9699707 36.11401367 C-71.36499521 34.52718523 -53.00442028 32.5621677 -36.7265625 16.8125 C-26.55790689 7.67463962 -13.8689952 0.17895478 0 0 Z " fill="#000000" transform="translate(915.875,684.75)"/>
<path d="M0 0 C5.20896644 5.43090235 8.10155619 13.30852095 8.74609375 20.75 C7.89088117 25.96679674 5.55045707 28.66826742 2.12109375 32.5625 C1.60289063 33.21089844 1.0846875 33.85929687 0.55078125 34.52734375 C-7.04427796 43.79184834 -17.3644911 53.01813116 -29.57421875 55 C-32.2433723 55.37599987 -32.2433723 55.37599987 -33.87890625 58.5625 C-38.20144779 59.96352351 -42.74277851 59.6906463 -47.2421875 59.66015625 C-48.03417038 59.6587413 -48.82615326 59.65732635 -49.64213562 59.65586853 C-52.15859844 59.65029457 -54.67497056 59.63774693 -57.19140625 59.625 C-58.9029935 59.61998163 -60.61458216 59.61541931 -62.32617188 59.61132812 C-66.51045133 59.60033368 -70.69466344 59.58308707 -74.87890625 59.5625 C-75.20890625 58.9025 -75.53890625 58.2425 -75.87890625 57.5625 C-77.36390625 58.0575 -77.36390625 58.0575 -78.87890625 58.5625 C-81.50390625 57.0625 -81.50390625 57.0625 -83.87890625 54.5625 C-85.21194527 49.01733251 -84.59610018 44.85423896 -83.12890625 39.5 C-82.95875 38.81873047 -82.78859375 38.13746094 -82.61328125 37.43554688 C-81.50104863 33.17880364 -79.98966513 29.45042081 -77.87890625 25.5625 C-77.21890625 25.5625 -76.55890625 25.5625 -75.87890625 25.5625 C-75.62109375 24.82386719 -75.36328125 24.08523437 -75.09765625 23.32421875 C-69.41076697 10.43758182 -52.17211283 3.49897502 -39.81640625 -1.4375 C-26.97997711 -5.97838681 -11.74716094 -8.9874329 0 0 Z " fill="#000000" transform="translate(85.87890625,5.4375)"/>
<path d="M0 0 C8.58 0 17.16 0 26 0 C26 0.33 26 0.66 26 1 C17.42 1 8.84 1 0 1 C0 0.67 0 0.34 0 0 Z " fill="#000000" transform="translate(490,365)"/>
<path d="M0 0 C6.27 0 12.54 0 19 0 C19 0.33 19 0.66 19 1 C12.73 1 6.46 1 0 1 C0 0.67 0 0.34 0 0 Z " fill="#000000" transform="translate(1702,323)"/>
<path d="M0 0 C5.28 0 10.56 0 16 0 C16 0.33 16 0.66 16 1 C10.72 1 5.44 1 0 1 C0 0.67 0 0.34 0 0 Z " fill="#000000" transform="translate(821,719)"/>
<path d="M0 0 C0.33 0 0.66 0 1 0 C1 5.28 1 10.56 1 16 C0.67 16 0.34 16 0 16 C0 10.72 0 5.44 0 0 Z " fill="#000000" transform="translate(816,596)"/>
<path d="M0 0 C0.33 0 0.66 0 1 0 C1 4.95 1 9.9 1 15 C0.67 15 0.34 15 0 15 C0 10.05 0 5.1 0 0 Z " fill="#000000" transform="translate(1398,687)"/>
<path d="M0 0 C0.33 0 0.66 0 1 0 C1 3.63 1 7.26 1 11 C0.67 11 0.34 11 0 11 C0 7.37 0 3.74 0 0 Z " fill="#000000" transform="translate(931,695)"/>
<path d="M0 0 C2.97 0 5.94 0 9 0 C9 0.33 9 0.66 9 1 C6.03 1 3.06 1 0 1 C0 0.67 0 0.34 0 0 Z " fill="#000000" transform="translate(1249,487)"/>
<path d="M0 0 C2.64 0 5.28 0 8 0 C8 0.33 8 0.66 8 1 C5.36 1 2.72 1 0 1 C0 0.67 0 0.34 0 0 Z " fill="#000000" transform="translate(1478,763)"/>
<path d="M0 0 C2.64 0 5.28 0 8 0 C8 0.33 8 0.66 8 1 C5.36 1 2.72 1 0 1 C0 0.67 0 0.34 0 0 Z " fill="#000000" transform="translate(521,366)"/>
<path d="M0 0 C2.31 0 4.62 0 7 0 C7 0.33 7 0.66 7 1 C4.69 1 2.38 1 0 1 C0 0.67 0 0.34 0 0 Z " fill="#000000" transform="translate(1421,661)"/>
<path d="M0 0 C2.31 0 4.62 0 7 0 C7 0.33 7 0.66 7 1 C4.69 1 2.38 1 0 1 C0 0.67 0 0.34 0 0 Z " fill="#000000" transform="translate(1025,378)"/>
<path d="M0 0 C2.31 0 4.62 0 7 0 C7 0.33 7 0.66 7 1 C4.69 1 2.38 1 0 1 C0 0.67 0 0.34 0 0 Z " fill="#000000" transform="translate(17,65)"/>
<path d="M0 0 C0.33 0 0.66 0 1 0 C1 2.31 1 4.62 1 7 C0.67 7 0.34 7 0 7 C0 4.69 0 2.38 0 0 Z " fill="#000000" transform="translate(95,23)"/>
<path d="M0 0 C1.98 0 3.96 0 6 0 C6 0.33 6 0.66 6 1 C4.02 1 2.04 1 0 1 C0 0.67 0 0.34 0 0 Z " fill="#000000" transform="translate(913,682)"/>
<path d="M0 0 C1.98 0 3.96 0 6 0 C6 0.33 6 0.66 6 1 C4.02 1 2.04 1 0 1 C0 0.67 0 0.34 0 0 Z " fill="#000000" transform="translate(1024,483)"/>
<path d="M0 0 C1.98 0 3.96 0 6 0 C6 0.33 6 0.66 6 1 C4.02 1 2.04 1 0 1 C0 0.67 0 0.34 0 0 Z " fill="#000000" transform="translate(37,65)"/>
<path d="M0 0 C1.65 0 3.3 0 5 0 C5 0.33 5 0.66 5 1 C3.35 1 1.7 1 0 1 C0 0.67 0 0.34 0 0 Z " fill="#000000" transform="translate(1346,800)"/>
<path d="M0 0 C0.33 0 0.66 0 1 0 C1 1.65 1 3.3 1 5 C0.67 5 0.34 5 0 5 C0 3.35 0 1.7 0 0 Z " fill="#000000" transform="translate(1919,690)"/>
<path d="M0 0 C0.33 0 0.66 0 1 0 C1 1.65 1 3.3 1 5 C0.67 5 0.34 5 0 5 C0 3.35 0 1.7 0 0 Z " fill="#000000" transform="translate(709,655)"/>
<path d="M0 0 C1.65 0 3.3 0 5 0 C5 0.33 5 0.66 5 1 C3.35 1 1.7 1 0 1 C0 0.67 0 0.34 0 0 Z " fill="#000000" transform="translate(1536,645)"/>
<path d="M0 0 C1.65 0 3.3 0 5 0 C5 0.33 5 0.66 5 1 C3.35 1 1.7 1 0 1 C0 0.67 0 0.34 0 0 Z " fill="#000000" transform="translate(516,556)"/>
<path d="M0 0 C1.65 0 3.3 0 5 0 C5 0.33 5 0.66 5 1 C3.35 1 1.7 1 0 1 C0 0.67 0 0.34 0 0 Z " fill="#000000" transform="translate(1684,466)"/>
<path d="M0 0 C0.33 0 0.66 0 1 0 C1 1.65 1 3.3 1 5 C0.67 5 0.34 5 0 5 C0 3.35 0 1.7 0 0 Z " fill="#000000" transform="translate(408,447)"/>
<path d="M0 0 C0.33 0 0.66 0 1 0 C1 1.65 1 3.3 1 5 C0.67 5 0.34 5 0 5 C0 3.35 0 1.7 0 0 Z " fill="#000000" transform="translate(587,359)"/>
<path d="M0 0 C0.33 0 0.66 0 1 0 C1 1.65 1 3.3 1 5 C0.67 5 0.34 5 0 5 C0 3.35 0 1.7 0 0 Z " fill="#000000" transform="translate(429,332)"/>
<path d="M0 0 C1.65 0 3.3 0 5 0 C5 0.33 5 0.66 5 1 C3.35 1 1.7 1 0 1 C0 0.67 0 0.34 0 0 Z " fill="#000000" transform="translate(375,276)"/>
<path d="M0 0 C0.33 0 0.66 0 1 0 C1 1.65 1 3.3 1 5 C0.67 5 0.34 5 0 5 C0 3.35 0 1.7 0 0 Z " fill="#000000" transform="translate(0,47)"/>
</svg>
